<svg width="45" height="45" viewBox="0 0 45 45" fill="none" xmlns="http://www.w3.org/2000/svg">
<rect x="0.5" y="0.5" width="44" height="44" rx="9.5" fill="#FF6B72" fill-opacity="0.1" stroke="#FF6B72"/>
<path d="M28.0896 15.8053C28.0896 12.365 25.3022 9.57758 21.8619 9.57758C18.4216 9.57758 15.6342 12.365 15.6342 15.8053C15.6342 17.8845 16.6538 19.7277 18.2207 20.8577C18.2107 20.8627 18.2032 20.8652 18.1981 20.8678C17.0756 21.3424 16.0687 22.0229 15.2023 22.8917C14.341 23.7515 13.6552 24.7708 13.1833 25.8926C12.7191 26.9911 12.4685 28.1681 12.4451 29.3605C12.4444 29.3873 12.4491 29.414 12.4589 29.4389C12.4687 29.4639 12.4834 29.4866 12.5021 29.5058C12.5208 29.525 12.5432 29.5402 12.5679 29.5507C12.5926 29.5611 12.6191 29.5664 12.646 29.5664H14.1501C14.2581 29.5664 14.3485 29.4785 14.351 29.3705C14.4013 27.4319 15.1772 25.6164 16.5508 24.2402C17.9696 22.8164 19.853 22.0329 21.8619 22.0329C25.3022 22.0329 28.0896 19.2455 28.0896 15.8053ZM21.8619 20.1245C19.4763 20.1245 17.5427 18.1909 17.5427 15.8053C17.5427 13.4197 19.4763 11.4861 21.8619 11.4861C24.2475 11.4861 26.1811 13.4197 26.1811 15.8053C26.1811 18.1909 24.2475 20.1245 21.8619 20.1245ZM24.4986 25.6741H31.1281C31.2386 25.6741 31.329 25.5837 31.329 25.4732V24.067C31.329 23.9565 31.2386 23.8661 31.1281 23.8661H26.6959L27.8812 22.3569C27.9085 22.3216 27.9235 22.2784 27.9239 22.2338C27.9239 22.1233 27.8335 22.0329 27.723 22.0329H25.8999C25.7768 22.0329 25.6613 22.0907 25.5835 22.1861L23.8633 24.3733C23.7528 24.514 23.6926 24.6897 23.6926 24.8705C23.6951 25.315 24.0542 25.6741 24.4986 25.6741ZM30.5254 27.2813H23.896C23.7855 27.2813 23.6951 27.3717 23.6951 27.4822V28.8884C23.6951 28.9989 23.7855 29.0893 23.896 29.0893H28.3282L27.1429 30.5985C27.1156 30.6337 27.1006 30.677 27.1002 30.7215C27.1002 30.832 27.1906 30.9224 27.3011 30.9224H29.1242C29.2472 30.9224 29.3628 30.8647 29.4406 30.7693L31.1607 28.582C31.2712 28.4414 31.3315 28.2656 31.3315 28.0848C31.329 27.6404 30.9699 27.2813 30.5254 27.2813Z" fill="#FF6B72"/>
</svg>
